<svg width="21" height="21" viewBox="0 0 21 21" fill="none" xmlns="http://www.w3.org/2000/svg">
<path d="M0.844563 6.22704L10.0916 0.683037C10.247 0.589786 10.4248 0.540527 10.6061 0.540527C10.7873 0.540527 10.9651 0.589786 11.1206 0.683037L20.3586 6.22804C20.4327 6.27245 20.494 6.33532 20.5366 6.4105C20.5792 6.48569 20.6016 6.57063 20.6016 6.65704V19.373C20.6016 19.6383 20.4962 19.8926 20.3087 20.0801C20.1211 20.2677 19.8668 20.373 19.6016 20.373H1.60156C1.33635 20.373 1.08199 20.2677 0.894456 20.0801C0.706919 19.8926 0.601563 19.6383 0.601563 19.373V6.65604C0.601544 6.56963 0.62392 6.48469 0.666508 6.4095C0.709096 6.33432 0.770441 6.27145 0.844563 6.22704ZM2.60156 7.50604V18.373H18.6016V7.50504L10.6056 2.70504L2.60156 7.50504V7.50604ZM10.6616 13.071L15.9576 8.60804L17.2456 10.138L10.6756 15.675L3.96556 10.145L5.23756 8.60104L10.6616 13.071Z" fill="#03053D"/>
</svg>
