<svg width="51" height="38" viewBox="0 0 51 38" fill="none" xmlns="http://www.w3.org/2000/svg">
<path d="M0.856934 32.9126L9.58591 20.5603C7.28015 20.1211 5.30377 19.078 3.6568 17.431C2.11962 15.784 1.35103 13.6979 1.35103 11.1725C1.35103 8.20793 2.33921 5.73747 4.31559 3.76109C6.40176 1.67492 8.87222 0.631836 11.727 0.631836C14.6915 0.631836 17.162 1.67492 19.1384 3.76109C21.2246 5.73747 22.2676 8.20793 22.2676 11.1725C22.2676 12.9293 21.8833 14.6312 21.1148 16.2781C20.456 17.9251 19.358 19.9015 17.8208 22.2072L7.44484 37.1947L0.856934 32.9126ZM28.6909 32.9126L37.4198 20.5603C35.1141 20.1211 33.1377 19.078 31.4907 17.431C29.9535 15.784 29.1849 13.6979 29.1849 11.1725C29.1849 8.20793 30.1731 5.73747 32.1495 3.76109C34.2357 1.67492 36.7061 0.631836 39.5609 0.631836C42.5255 0.631836 44.9959 1.67492 46.9723 3.76109C49.0585 5.73747 50.1016 8.20793 50.1016 11.1725C50.1016 12.9293 49.7173 14.6312 48.9487 16.2781C48.2899 17.9251 47.1919 19.9015 45.6547 22.2072L35.2788 37.1947L28.6909 32.9126Z" fill="#132043"/>
</svg>
