<svg width="19" height="19" viewBox="0 0 19 19" fill="none" xmlns="http://www.w3.org/2000/svg">
<path d="M7.11014 8.05505C8.04848 9.70353 9.41366 11.0687 11.0621 12.007L11.9461 10.769C12.0883 10.57 12.2985 10.4299 12.5369 10.3754C12.7754 10.3208 13.0256 10.3556 13.2401 10.473C14.6545 11.246 16.2163 11.7108 17.8231 11.837C18.0739 11.8569 18.308 11.9706 18.4787 12.1554C18.6494 12.3402 18.7442 12.5825 18.7441 12.834V17.296C18.7442 17.5436 18.6524 17.7825 18.4865 17.9663C18.3206 18.1501 18.0924 18.2658 17.8461 18.291C17.3161 18.346 16.7821 18.373 16.2441 18.373C7.68414 18.373 0.744141 11.433 0.744141 2.87305C0.744141 2.33505 0.771141 1.80105 0.826141 1.27105C0.851395 1.02474 0.967125 0.796568 1.15093 0.630681C1.33474 0.464794 1.57355 0.372994 1.82114 0.373047H6.28314C6.5347 0.373015 6.77704 0.467798 6.96182 0.638498C7.14661 0.809197 7.26027 1.04327 7.28014 1.29405C7.40636 2.90084 7.87122 4.46273 8.64414 5.87705C8.76161 6.09161 8.79635 6.34179 8.74181 6.58024C8.68726 6.8187 8.54721 7.02889 8.34814 7.17105L7.11014 8.05505ZM4.58814 7.39805L6.48814 6.04105C5.94892 4.87714 5.57949 3.64189 5.39114 2.37305H2.75414C2.74814 2.53905 2.74514 2.70605 2.74514 2.87305C2.74414 10.329 8.78814 16.373 16.2441 16.373C16.4111 16.373 16.5781 16.37 16.7441 16.363V13.726C15.4753 13.5377 14.24 13.1683 13.0761 12.629L11.7191 14.529C11.1728 14.3168 10.6421 14.0661 10.1311 13.779L10.0731 13.746C8.11172 12.6298 6.48742 11.0055 5.37114 9.04405L5.33814 8.98605C5.05105 8.47504 4.80042 7.94439 4.58814 7.39805Z" fill="#03053D"/>
</svg>
