<svg width="17" height="23" viewBox="0 0 17 23" fill="none" xmlns="http://www.w3.org/2000/svg">
<path d="M8.74414 17.1122L12.9871 12.8701C13.8262 12.031 14.3975 10.9619 14.6289 9.79804C14.8604 8.63418 14.7415 7.42783 14.2873 6.33153C13.8332 5.23524 13.0641 4.29822 12.0775 3.63898C11.0908 2.97974 9.93079 2.62787 8.74414 2.62787C7.5575 2.62787 6.3975 2.97974 5.41083 3.63898C4.42416 4.29822 3.65512 5.23524 3.20096 6.33153C2.74681 7.42783 2.62793 8.63418 2.85936 9.79804C3.09079 10.9619 3.66213 12.031 4.50114 12.8701L8.74414 17.1122ZM14.4011 14.2841L8.74414 19.9411L3.08714 14.2841C1.96837 13.1653 1.20648 11.7398 0.897832 10.188C0.589183 8.63618 0.747634 7.02766 1.35315 5.56588C1.95866 4.10409 2.98404 2.85469 4.29963 1.97566C5.61521 1.09662 7.16191 0.627441 8.74414 0.627441C10.3264 0.627441 11.8731 1.09662 13.1887 1.97566C14.5042 2.85469 15.5296 4.10409 16.1351 5.56588C16.7407 7.02766 16.8991 8.63618 16.5905 10.188C16.2818 11.7398 15.5199 13.1653 14.4011 14.2841ZM1.74414 20.6271H15.7441V22.6271H1.74414V20.6271Z" fill="#132043"/>
</svg>
