<svg width="21" height="21" viewBox="0 0 21 21" fill="none" xmlns="http://www.w3.org/2000/svg">
<path d="M10.7441 20.373C5.22114 20.373 0.744141 15.896 0.744141 10.373C0.744141 4.85005 5.22114 0.373047 10.7441 0.373047C16.2671 0.373047 20.7441 4.85005 20.7441 10.373C20.7441 15.896 16.2671 20.373 10.7441 20.373ZM10.7441 18.373C12.8659 18.373 14.9007 17.5302 16.401 16.0299C17.9013 14.5296 18.7441 12.4948 18.7441 10.373C18.7441 8.25132 17.9013 6.21648 16.401 4.71619C14.9007 3.2159 12.8659 2.37305 10.7441 2.37305C8.62241 2.37305 6.58758 3.2159 5.08729 4.71619C3.587 6.21648 2.74414 8.25132 2.74414 10.373C2.74414 12.4948 3.587 14.5296 5.08729 16.0299C6.58758 17.5302 8.62241 18.373 10.7441 18.373ZM11.7441 10.373H15.7441V12.373H9.74414V5.37305H11.7441V10.373Z" fill="#132043"/>
</svg>
